<svg xmlns="http://www.w3.org/2000/svg" width="27" height="27" viewBox="0 0 27 27">
    <g transform="translate(-335 -130)">
        <circle cx="13.5" cy="13.5" r="13.5" transform="translate(335 130)"/>
        <g>
            <path fill="#fff" d="M128.555 140.866a.9.9 0 0 0 .636.272.871.871 0 0 0 .636-.272l4.935-4.935 4.935 4.935a.9.9 0 0 0 .636.272.871.871 0 0 0 .636-.272.923.923 0 0 0 0-1.287l-4.919-4.919 4.919-4.935a.923.923 0 0 0 0-1.287.909.909 0 0 0-1.287 0l-4.919 4.934-4.935-4.919a.91.91 0 0 0-1.287 1.287l4.935 4.919-4.919 4.935a.878.878 0 0 0-.002 1.272z" transform="translate(342.37 137.018) translate(-128.279 -128.173)"/>
        </g>
    </g>
</svg>
